<svg width="15" height="18" viewBox="0 0 15 18" fill="none" xmlns="http://www.w3.org/2000/svg">
<path d="M15 7.2C14.9989 6.08646 14.573 5.01886 13.8159 4.23147C13.0588 3.44407 12.0323 3.00119 10.9615 3H8.07692C8.07692 2.52261 8.25927 2.06477 8.58385 1.72721C8.90844 1.38964 9.34866 1.2 9.80769 1.2C9.9607 1.2 10.1074 1.13679 10.2156 1.02426C10.3238 0.911742 10.3846 0.75913 10.3846 0.6C10.3846 0.44087 10.3238 0.288258 10.2156 0.175736C10.1074 0.0632141 9.9607 0 9.80769 0C9.04264 0 8.30893 0.316071 7.76796 0.87868C7.22699 1.44129 6.92308 2.20435 6.92308 3H4.03846C2.96775 3.00119 1.94121 3.44407 1.1841 4.23147C0.426993 5.01886 0.00114535 6.08646 0 7.2C0.000207543 7.41044 0.0536208 7.61711 0.154882 7.7993C0.256142 7.98149 0.40169 8.13278 0.576923 8.238V9C0.576923 11.6648 2.96538 13.659 4.8851 15.2618C5.74471 15.9803 6.92308 16.9635 6.92308 17.4C6.92308 17.5591 6.98386 17.7117 7.09205 17.8243C7.20025 17.9368 7.34699 18 7.5 18C7.65301 18 7.79975 17.9368 7.90795 17.8243C8.01614 17.7117 8.07692 17.5591 8.07692 17.4C8.07692 16.9635 9.25529 15.9803 10.1149 15.2618C12.0346 13.659 14.4231 11.6648 14.4231 9V8.238C14.5983 8.13278 14.7439 7.98149 14.8451 7.7993C14.9464 7.61711 14.9998 7.41044 15 7.2ZM9.39303 14.325C8.62716 14.964 7.95072 15.525 7.5 16.0778C7.04928 15.5288 6.37284 14.964 5.60697 14.325C3.87981 12.8843 1.73077 11.0895 1.73077 9V8.4H13.2692V9C13.2692 11.0895 11.1202 12.8843 9.39303 14.325Z" fill="#FDB44F"/>
</svg>
