<svg width="20" height="20" viewBox="0 0 20 20" fill="none" xmlns="http://www.w3.org/2000/svg">
<g clip-path="url(#clip0_3410_495)">
<path d="M9.9998 18.333C10.9165 18.333 11.6665 17.583 11.6665 16.6663H8.33313C8.33313 17.583 9.0748 18.333 9.9998 18.333ZM14.9998 13.333V9.16634C14.9998 6.60801 13.6331 4.46634 11.2498 3.89967V3.33301C11.2498 2.64134 10.6915 2.08301 9.9998 2.08301C9.30813 2.08301 8.7498 2.64134 8.7498 3.33301V3.89967C6.35813 4.46634 4.9998 6.59967 4.9998 9.16634V13.333L3.9248 14.408C3.3998 14.933 3.76647 15.833 4.50813 15.833H15.4831C16.2248 15.833 16.5998 14.933 16.0748 14.408L14.9998 13.333Z" fill="#FDB44F"/>
</g>
<defs>
<clipPath id="clip0_3410_495">
<rect width="20" height="20" fill="white"/>
</clipPath>
</defs>
</svg>
