<svg width="25" height="24" viewBox="0 0 25 24" fill="none" xmlns="http://www.w3.org/2000/svg">
<path fill-rule="evenodd" clip-rule="evenodd" d="M19.1586 12.2615L5.1586 13.8651C3.64374 14.0386 2.5 15.3208 2.5 16.8456V17.0307L2.50504 17.2052C2.57494 18.4116 3.36521 19.4248 4.45213 19.8211L4.637 19.8808L4.68747 20.0292C5.11526 21.1928 6.21775 21.9998 7.5 21.9998L7.67627 21.9947C8.83308 21.9277 9.81403 21.2052 10.2533 20.1931L10.329 19.9998H14.676L14.6866 20.0292C15.1143 21.1928 16.2168 21.9998 17.5 21.9998L17.6763 21.9947C18.9011 21.9237 19.9288 21.1179 20.3251 20.0116L20.373 19.8638L20.5293 19.8123C21.693 19.3846 22.5 18.2821 22.5 16.9998V15.242C22.5 15.1279 22.4935 15.0139 22.4805 14.9006C22.292 13.2545 20.8047 12.0729 19.1586 12.2615ZM19.3862 14.2485C19.9349 14.1856 20.4307 14.5795 20.4935 15.1282C20.4978 15.166 20.5 15.204 20.5 15.242V16.9998C20.5 17.5241 20.0945 17.9588 19.5757 17.997L19.4633 18.0005C18.964 18.0188 18.5614 18.4009 18.5064 18.8861L18.5 18.9998C18.5 19.5126 18.114 19.9353 17.6159 19.9931L17.4991 19.9998C16.9748 19.9998 16.5401 19.5943 16.5019 19.0755L16.4984 18.9631C16.4787 18.4255 16.0371 17.9998 15.4991 17.9998H9.5C8.98716 17.9998 8.56449 18.3859 8.50673 18.8832L8.5 18.9998C8.5 19.5521 8.05228 19.9998 7.5 19.9998C6.97568 19.9998 6.54105 19.5943 6.50278 19.0755L6.49933 18.9631C6.48098 18.4639 6.09892 18.0612 5.61369 18.0062L5.46911 17.9998C4.93389 17.9998 4.5 17.5659 4.5 17.0307V16.8456C4.5 16.3373 4.88125 15.9099 5.3862 15.8521L19.3862 14.2485Z" fill="#968C7E"/>
<path opacity="0.6" fill-rule="evenodd" clip-rule="evenodd" d="M14.415 2.98192C15.9513 2.54301 17.5501 3.38509 18.0705 4.87424L18.1238 5.04233L19.4617 9.7252C19.6135 10.2562 19.306 10.8097 18.7749 10.9614C18.2818 11.1023 17.7694 10.8473 17.5772 10.3849L17.5387 10.2746L16.2007 5.59177C16.049 5.06074 15.4955 4.75325 14.9645 4.90497L14.8767 4.93452L14.792 4.97207L12.9474 5.89435C12.4535 6.14134 11.8528 5.94111 11.6058 5.44714C11.3764 4.98844 11.5327 4.43775 11.9517 4.16367L12.053 4.10549L13.8976 3.18321C14.0635 3.10026 14.2367 3.03288 14.415 2.98192Z" fill="#968C7E"/>
</svg>
