<svg width="26" height="20" viewBox="0 0 26 20" fill="none" xmlns="http://www.w3.org/2000/svg">
<path d="M24.9478 11.8544C24.6645 11.6352 24.3397 11.4763 23.9931 11.3871C23.6466 11.298 23.2856 11.2806 22.9321 11.3359C24.9663 9.27505 25.9952 7.22615 25.9952 5.21747C25.9952 2.34031 23.6892 0.000101987 20.8547 0.000101987C20.1026 -0.00463786 19.3585 0.155889 18.6748 0.470412C17.9911 0.784936 17.3842 1.24583 16.8969 1.82074C16.4096 1.24583 15.8027 0.784936 15.119 0.470412C14.4353 0.155889 13.6912 -0.00463786 12.9391 0.000101987C10.1046 0.000101987 7.79857 2.34031 7.79857 5.21747C7.79857 6.41311 8.14951 7.57506 8.8882 8.8044C8.28321 8.95822 7.73108 9.27376 7.29058 9.71744L4.84053 12.174H1.73302C1.27339 12.174 0.832592 12.3572 0.507589 12.6833C0.182585 13.0095 0 13.4518 0 13.9131L0 18.2609C0 18.7221 0.182585 19.1645 0.507589 19.4906C0.832592 19.8168 1.27339 20 1.73302 20H12.9976C13.0685 20 13.139 19.9913 13.2077 19.9739L20.1398 18.2348C20.184 18.2242 20.2271 18.2097 20.2687 18.1913L24.4788 16.3935L24.5265 16.3718C24.9311 16.1689 25.2776 15.8659 25.5333 15.4915C25.7891 15.1171 25.9456 14.6835 25.9882 14.2316C26.0307 13.7797 25.958 13.3243 25.7767 12.9084C25.5955 12.4925 25.3117 12.1298 24.9522 11.8544H24.9478ZM23.7672 14.8055L19.6513 16.5641L12.8893 18.2609H6.06555V13.4033L8.51669 10.9446C8.67703 10.7824 8.8679 10.6538 9.0782 10.5663C9.28851 10.4788 9.51405 10.4341 9.74171 10.4348H15.1639C15.5086 10.4348 15.8392 10.5723 16.083 10.8169C16.3267 11.0615 16.4636 11.3932 16.4636 11.7392C16.4636 12.0851 16.3267 12.4169 16.083 12.6615C15.8392 12.9061 15.5086 13.0435 15.1639 13.0435H12.1311C11.9013 13.0435 11.6809 13.1351 11.5184 13.2982C11.3559 13.4613 11.2646 13.6825 11.2646 13.9131C11.2646 14.1437 11.3559 14.3649 11.5184 14.5279C11.6809 14.691 11.9013 14.7826 12.1311 14.7826H15.5971C15.6624 14.7824 15.7274 14.7752 15.791 14.7609L23.048 13.0859L23.0816 13.0772C23.3031 13.0155 23.5396 13.0382 23.7455 13.1409C23.9513 13.2436 24.1121 13.4191 24.1968 13.6336C24.2815 13.8481 24.2841 14.0864 24.2042 14.3028C24.1243 14.5191 23.9675 14.6982 23.764 14.8055H23.7672Z" fill="#423D36"/>
</svg>
