<svg width="29" height="29" viewBox="0 0 29 29" fill="none" xmlns="http://www.w3.org/2000/svg">
<path d="M14.5 0C11.6322 0 8.82875 0.85041 6.44424 2.44369C4.05972 4.03697 2.20122 6.30156 1.10375 8.95109C0.00628262 11.6006 -0.280866 14.5161 0.27862 17.3288C0.838105 20.1415 2.2191 22.7252 4.24696 24.753C6.27482 26.7809 8.85847 28.1619 11.6712 28.7214C14.4839 29.2809 17.3994 28.9937 20.0489 27.8962C22.6984 26.7988 24.963 24.9403 26.5563 22.5558C28.1496 20.1712 29 17.3678 29 14.5C28.9959 10.6556 27.467 6.96983 24.7486 4.25143C22.0302 1.53304 18.3444 0.00405975 14.5 0ZM20.8661 11.943L13.0584 19.7507C12.9548 19.8544 12.8318 19.9366 12.6964 19.9928C12.561 20.0489 12.4158 20.0778 12.2692 20.0778C12.1227 20.0778 11.9775 20.0489 11.8421 19.9928C11.7067 19.9366 11.5837 19.8544 11.4801 19.7507L8.13395 16.4045C7.92465 16.1952 7.80708 15.9114 7.80708 15.6154C7.80708 15.3194 7.92465 15.0355 8.13395 14.8262C8.34324 14.617 8.6271 14.4994 8.92308 14.4994C9.21906 14.4994 9.50292 14.617 9.71222 14.8262L12.2692 17.3847L19.2878 10.3647C19.3914 10.2611 19.5144 10.1789 19.6498 10.1228C19.7852 10.0667 19.9304 10.0378 20.0769 10.0378C20.2235 10.0378 20.3686 10.0667 20.504 10.1228C20.6394 10.1789 20.7624 10.2611 20.8661 10.3647C20.9697 10.4683 21.0519 10.5914 21.108 10.7268C21.1641 10.8622 21.1929 11.0073 21.1929 11.1538C21.1929 11.3004 21.1641 11.4455 21.108 11.5809C21.0519 11.7163 20.9697 11.8393 20.8661 11.943Z" fill="#FB970C"/>
</svg>
