<svg width="11" height="17" viewBox="0 0 11 17" fill="none" xmlns="http://www.w3.org/2000/svg">
<path d="M10.6258 9.28515L2.16921 16.6748C1.93091 16.883 1.6077 17 1.2707 17C0.933686 17 0.61048 16.883 0.372178 16.6748C0.133876 16.4665 2.51092e-09 16.1841 0 15.8896C-2.51092e-09 15.5951 0.133876 15.3127 0.372178 15.1045L7.93135 8.50092L0.374293 1.89552C0.256298 1.79241 0.162698 1.67 0.0988399 1.53529C0.0349815 1.40057 0.00211381 1.25618 0.0021138 1.11037C0.0021138 0.964552 0.0349815 0.820164 0.0988399 0.685448C0.162698 0.550732 0.256298 0.428326 0.374293 0.325219C0.492288 0.222112 0.632368 0.140323 0.786536 0.0845218C0.940704 0.0287206 1.10594 -1.08641e-09 1.27281 0C1.43968 1.08641e-09 1.60492 0.0287206 1.75908 0.0845218C1.91325 0.140323 2.05333 0.222112 2.17133 0.325219L10.628 7.71485C10.7461 7.81795 10.8397 7.94041 10.9036 8.07521C10.9674 8.21001 11.0002 8.3545 11 8.50038C10.9998 8.64627 10.9667 8.79069 10.9024 8.92535C10.8382 9.06002 10.7442 9.18229 10.6258 9.28515Z" fill="#C7BBAB"/>
</svg>
