<svg width="23" height="27" viewBox="0 0 23 27" xmlns="http://www.w3.org/2000/svg">
<path d="M11.5 3.85714C9.22552 3.85714 7.00211 4.53579 5.11095 5.80728C3.21978 7.07876 1.7458 8.88597 0.87539 11.0004C0.00498279 13.1148 -0.222756 15.4414 0.220974 17.686C0.664704 19.9307 1.75997 21.9925 3.36828 23.6108C4.97658 25.2291 7.02568 26.3312 9.25646 26.7777C11.4872 27.2241 13.7995 26.995 15.9009 26.1192C18.0022 25.2434 19.7983 23.7602 21.0619 21.8573C22.3255 19.9544 23 17.7172 23 15.4286C22.9965 12.3607 21.7838 9.41951 19.6279 7.25021C17.472 5.08091 14.5489 3.86065 11.5 3.85714ZM16.9697 11.2894L12.178 16.1108C12.089 16.2004 11.9833 16.2715 11.8669 16.3199C11.7506 16.3684 11.6259 16.3934 11.5 16.3934C11.3741 16.3934 11.2494 16.3684 11.1331 16.3199C11.0167 16.2715 10.911 16.2004 10.822 16.1108C10.7329 16.0212 10.6623 15.9148 10.6141 15.7978C10.5659 15.6807 10.5411 15.5553 10.5411 15.4286C10.5411 15.3019 10.5659 15.1764 10.6141 15.0593C10.6623 14.9423 10.7329 14.8359 10.822 14.7463L15.6136 9.92491C15.7027 9.83532 15.8084 9.76425 15.9247 9.71576C16.0411 9.66728 16.1657 9.64232 16.2917 9.64232C16.4176 9.64232 16.5423 9.66728 16.6586 9.71576C16.7749 9.76425 16.8807 9.83532 16.9697 9.92491C17.0587 10.0145 17.1294 10.1209 17.1775 10.2379C17.2257 10.355 17.2505 10.4804 17.2505 10.6071C17.2505 10.7338 17.2257 10.8593 17.1775 10.9764C17.1294 11.0934 17.0587 11.1998 16.9697 11.2894ZM7.66667 0.964286C7.66667 0.708541 7.76764 0.463271 7.94736 0.282433C8.12708 0.101594 8.37084 0 8.625 0H14.375C14.6292 0 14.8729 0.101594 15.0526 0.282433C15.2324 0.463271 15.3333 0.708541 15.3333 0.964286C15.3333 1.22003 15.2324 1.4653 15.0526 1.64614C14.8729 1.82698 14.6292 1.92857 14.375 1.92857H8.625C8.37084 1.92857 8.12708 1.82698 7.94736 1.64614C7.76764 1.4653 7.66667 1.22003 7.66667 0.964286Z" />
</svg>
