<svg width="20" height="15" viewBox="0 0 20 15" fill="none" xmlns="http://www.w3.org/2000/svg">
<path d="M19.2806 10.2806L14.7806 14.7806C14.6757 14.8856 14.542 14.9572 14.3965 14.9861C14.2509 15.0151 14.1 15.0003 13.9629 14.9435C13.8258 14.8867 13.7086 14.7904 13.6262 14.667C13.5438 14.5435 13.4999 14.3984 13.5 14.25V10.5H9.75C7.16498 10.4973 4.68661 9.46916 2.85872 7.64128C1.03084 5.81339 0.00272983 3.33502 0 0.75C0 0.551088 0.0790176 0.360322 0.21967 0.21967C0.360322 0.0790178 0.551088 0 0.75 0C0.948912 0 1.13968 0.0790178 1.28033 0.21967C1.42098 0.360322 1.5 0.551088 1.5 0.75C1.50248 2.93727 2.37247 5.03425 3.91911 6.58089C5.46575 8.12753 7.56273 8.99752 9.75 9H13.5V5.25C13.4999 5.10158 13.5438 4.95646 13.6262 4.83301C13.7086 4.70957 13.8258 4.61335 13.9629 4.55653C14.1 4.49972 14.2509 4.48487 14.3965 4.51385C14.542 4.54284 14.6757 4.61437 14.7806 4.71937L19.2806 9.21937C19.3504 9.28903 19.4057 9.37175 19.4434 9.4628C19.4812 9.55384 19.5006 9.65144 19.5006 9.75C19.5006 9.84856 19.4812 9.94616 19.4434 10.0372C19.4057 10.1283 19.3504 10.211 19.2806 10.2806Z" fill="#968C7E"/>
</svg>
