<svg width="49" height="49" viewBox="0 0 49 49" fill="none" xmlns="http://www.w3.org/2000/svg">
<path d="M44.7407 42.0788C44.9106 42.2612 45.0427 42.4756 45.1291 42.7095C45.2155 42.9433 45.2547 43.192 45.2443 43.4411C45.2339 43.6902 45.1741 43.9347 45.0684 44.1606C44.9628 44.3864 44.8134 44.589 44.6288 44.7567C44.4442 44.9244 44.2282 45.0537 43.9933 45.1373C43.7583 45.2209 43.5091 45.2571 43.2601 45.2437C43.011 45.2303 42.7671 45.1676 42.5425 45.0593C42.3179 44.951 42.117 44.7992 41.9515 44.6127L39.0869 41.4641H13.8991L6.21928 48.0957L6.20043 48.1122C5.52091 48.6868 4.65931 49.0014 3.76928 49C3.2156 48.9988 2.66887 48.8766 2.16737 48.642C1.51686 48.3415 0.96662 47.8602 0.582317 47.2555C0.198014 46.6508 -0.00411334 45.9484 6.34468e-05 45.2321V7.55261C6.34468e-05 6.55328 0.397177 5.59489 1.10404 4.88827C1.81091 4.18164 2.76962 3.78466 3.76928 3.78466H4.81995L4.25928 3.16766C4.08935 2.98518 3.95735 2.7708 3.87091 2.53695C3.78447 2.3031 3.74532 2.05442 3.75573 1.80533C3.76614 1.55624 3.8259 1.31169 3.93156 1.08586C4.03721 0.860027 4.18664 0.657404 4.37121 0.489733C4.55577 0.322061 4.77179 0.192676 5.00674 0.109077C5.24169 0.0254782 5.49091 -0.0106724 5.73994 0.00272053C5.98897 0.0161134 6.23287 0.0787837 6.45749 0.187099C6.68212 0.295414 6.883 0.447219 7.04851 0.633717L44.7407 42.0788ZM45.2307 3.78466H17.1382C16.9549 3.78284 16.775 3.83452 16.6206 3.93336C16.4663 4.03221 16.3441 4.17393 16.2691 4.34117C16.194 4.5084 16.1695 4.69387 16.1983 4.87486C16.2272 5.05585 16.3082 5.2245 16.4315 5.36013L47.3509 39.3588C47.4781 39.503 47.6464 39.6048 47.8331 39.6506C48.0199 39.6964 48.2162 39.684 48.3957 39.6151C48.5752 39.5461 48.7293 39.4239 48.8373 39.2648C48.9453 39.1058 49.0021 38.9175 48.9999 38.7253V7.55261C48.9999 6.55328 48.6028 5.59489 47.896 4.88827C47.1891 4.18164 46.2304 3.78466 45.2307 3.78466Z" fill="#C7BBAB"/>
</svg>
