<svg width="31" height="31" viewBox="0 0 31 31" xmlns="http://www.w3.org/2000/svg">
<path d="M17.3624 2.16133C17.243 2.06204 17.1015 1.99292 16.9497 1.95979C16.798 1.92667 16.6405 1.93051 16.4906 1.97099C16.3406 2.01147 16.2026 2.08741 16.0882 2.1924C15.9738 2.29739 15.8862 2.42836 15.833 2.57426L13.1689 9.88953L10.2433 7.05473C10.1451 6.95943 10.0277 6.88604 9.89906 6.83938C9.77038 6.79273 9.63328 6.77387 9.49678 6.78405C9.36029 6.79424 9.2275 6.83323 9.10717 6.89846C8.98684 6.96369 8.8817 7.05368 8.79867 7.1625C6.17578 10.5991 4.84375 14.0564 4.84375 17.4373C4.84375 20.2635 5.96646 22.974 7.96489 24.9724C9.96333 26.9708 12.6738 28.0936 15.5 28.0936C18.3262 28.0936 21.0367 26.9708 23.0351 24.9724C25.0335 22.974 26.1562 20.2635 26.1562 17.4373C26.1562 10.2383 20.0059 4.35918 17.3624 2.16133Z" />
</svg>
