<svg width="52" height="32" viewBox="0 0 52 32" fill="none" xmlns="http://www.w3.org/2000/svg">
<path d="M35.3989 18.3776C35.3331 18.4916 35.2384 18.5863 35.1243 18.6521C35.0103 18.7179 34.8809 18.7526 34.7492 18.7526H16.7492C16.6176 18.7524 16.4884 18.7177 16.3745 18.6518C16.2606 18.5859 16.166 18.4912 16.1003 18.3772C16.0346 18.2632 16 18.1339 16 18.0024C16 17.8708 16.0347 17.7415 16.1005 17.6276C17.5283 15.1591 19.7286 13.3891 22.2964 12.5501C21.0263 11.7939 20.0394 10.6417 19.4875 9.27048C18.9355 7.89922 18.8489 6.38468 19.2411 4.95945C19.6332 3.53422 20.4823 2.27711 21.658 1.38117C22.8337 0.485228 24.271 0 25.7492 0C27.2274 0 28.6647 0.485228 29.8405 1.38117C31.0162 2.27711 31.8653 3.53422 32.2574 4.95945C32.6495 6.38468 32.563 7.89922 32.011 9.27048C31.459 10.6417 30.4722 11.7939 29.202 12.5501C31.7699 13.3891 33.9702 15.1591 35.398 17.6276C35.464 17.7415 35.4988 17.8708 35.4989 18.0024C35.4991 18.1341 35.4646 18.2635 35.3989 18.3776Z" fill="#C7BBAB"/>
<path d="M19.3215 24.352H20.1215V31.664H19.3215V24.352ZM18.2175 27.256H19.5375V27.936H18.2175V27.256ZM17.6735 24.496H18.4575V31.304H17.6735V24.496ZM14.2255 25.2H15.0655V29.424H14.2255V25.2ZM14.2255 29.096H14.7055C15.4415 29.096 16.2655 29.056 17.2015 28.872L17.2895 29.6C16.3135 29.784 15.4735 29.816 14.7055 29.816H14.2255V29.096ZM27.6897 26.192H29.2177V26.88H27.6897V26.192ZM28.9777 24.352H29.8177V28.704H28.9777V24.352ZM27.3777 28.896C28.9057 28.896 29.8417 29.416 29.8417 30.28C29.8417 31.16 28.9057 31.664 27.3777 31.664C25.8497 31.664 24.9137 31.16 24.9137 30.28C24.9137 29.416 25.8497 28.896 27.3777 28.896ZM27.3777 29.544C26.3457 29.544 25.7457 29.8 25.7457 30.28C25.7457 30.76 26.3457 31.016 27.3777 31.016C28.4177 31.016 29.0097 30.76 29.0097 30.28C29.0097 29.8 28.4177 29.544 27.3777 29.544ZM25.5457 25.088H26.2257V25.624C26.2257 26.992 25.4817 28.2 24.1857 28.664L23.7537 28C24.8977 27.6 25.5457 26.624 25.5457 25.624V25.088ZM25.7137 25.088H26.3857V25.616C26.3857 26.528 27.0097 27.432 28.1057 27.808L27.6897 28.472C26.4257 28.032 25.7137 26.88 25.7137 25.616V25.088ZM23.9937 24.848H27.9137V25.52H23.9937V24.848ZM31.4711 30.08H38.0951V30.768H31.4711V30.08ZM34.3511 28.416H35.1831V30.264H34.3511V28.416ZM32.2071 24.848H33.0471V26.072H36.4951V24.848H37.3271V28.616H32.2071V24.848ZM33.0471 26.736V27.936H36.4951V26.736H33.0471Z" fill="#C7BBAB"/>
</svg>
