<svg width="31" height="31" viewBox="0 0 31 31" xmlns="http://www.w3.org/2000/svg">
<path d="M28.4957 11.6252L11.6249 28.4948C11.445 28.6747 11.2314 28.8175 10.9963 28.9149C10.7612 29.0123 10.5092 29.0624 10.2548 29.0624C10.0003 29.0624 9.74831 29.0123 9.51321 28.9149C9.27812 28.8175 9.06451 28.6747 8.88459 28.4948L2.50416 22.1155C2.3242 21.9356 2.18145 21.722 2.08405 21.4869C1.98665 21.2518 1.93652 20.9998 1.93652 20.7454C1.93652 20.4909 1.98665 20.2389 2.08405 20.0038C2.18145 19.7687 2.3242 19.5551 2.50416 19.3752L6.03647 15.8429C6.08145 15.7979 6.13487 15.7621 6.19367 15.7378C6.25248 15.7134 6.31551 15.7008 6.37916 15.7008C6.44282 15.7008 6.50585 15.7134 6.56465 15.7378C6.62345 15.7621 6.67687 15.7979 6.72186 15.8429L10.9396 20.0606C11.0337 20.1547 11.1463 20.2284 11.2703 20.2771C11.3942 20.3258 11.5268 20.3484 11.6599 20.3435C11.793 20.3386 11.9236 20.3063 12.0436 20.2487C12.1637 20.1911 12.2705 20.1093 12.3576 20.0085C12.5167 19.8166 12.5975 19.5718 12.5841 19.3228C12.5706 19.0739 12.4638 18.8392 12.2849 18.6656L8.09143 14.4721C8.00084 14.3813 7.94997 14.2583 7.94997 14.13C7.94997 14.0018 8.00084 13.8787 8.09143 13.7879L9.90783 11.9715C9.95282 11.9265 10.0062 11.8908 10.065 11.8664C10.1238 11.842 10.1869 11.8295 10.2505 11.8295C10.3142 11.8295 10.3772 11.842 10.436 11.8664C10.4948 11.8908 10.5482 11.9265 10.5932 11.9715L14.8109 16.1892C14.9051 16.2833 15.0177 16.357 15.1416 16.4057C15.2656 16.4544 15.3982 16.477 15.5313 16.4721C15.6643 16.4672 15.795 16.4349 15.915 16.3773C16.035 16.3197 16.1419 16.2379 16.2289 16.1371C16.388 15.9452 16.4689 15.7004 16.4554 15.4515C16.442 15.2025 16.3351 14.9678 16.1563 14.7942L11.9676 10.5971C11.8771 10.5063 11.8262 10.3833 11.8262 10.255C11.8262 10.1268 11.8771 10.0037 11.9676 9.91293L13.784 8.09652C13.8748 8.00594 13.9979 7.95507 14.1261 7.95507C14.2544 7.95507 14.3774 8.00594 14.4682 8.09652L18.6859 12.3142C18.7801 12.4085 18.8928 12.4824 19.0168 12.5312C19.1409 12.58 19.2737 12.6026 19.4069 12.5977C19.5401 12.5929 19.6709 12.5605 19.791 12.5028C19.9112 12.445 20.0181 12.3631 20.1051 12.2621C20.2641 12.0701 20.3448 11.8252 20.3311 11.5762C20.3174 11.3273 20.2103 11.0927 20.0313 10.9192L15.8426 6.72211C15.7521 6.63131 15.7012 6.50828 15.7012 6.38002C15.7012 6.25176 15.7521 6.12873 15.8426 6.03793L19.3749 2.50563C19.5549 2.32567 19.7685 2.18291 20.0036 2.08551C20.2387 1.98812 20.4906 1.93799 20.7451 1.93799C20.9996 1.93799 21.2516 1.98812 21.4867 2.08551C21.7218 2.18291 21.9354 2.32567 22.1153 2.50563L28.4957 8.88484C28.6757 9.06476 28.8184 9.27837 28.9158 9.51347C29.0132 9.74857 29.0634 10.0005 29.0634 10.255C29.0634 10.5095 29.0132 10.7615 28.9158 10.9966C28.8184 11.2317 28.6757 11.4453 28.4957 11.6252Z" />
</svg>
