<svg width="27" height="27" viewBox="0 0 27 27" fill="none" xmlns="http://www.w3.org/2000/svg">
<path d="M13.5 0C10.83 0 8.21987 0.791761 5.99981 2.27516C3.77974 3.75856 2.04942 5.86697 1.02763 8.33377C0.00584934 10.8006 -0.261496 13.515 0.259405 16.1337C0.780305 18.7525 2.06606 21.1579 3.95406 23.0459C5.84207 24.9339 8.24754 26.2197 10.8663 26.7406C13.485 27.2615 16.1994 26.9942 18.6662 25.9724C21.133 24.9506 23.2414 23.2203 24.7248 21.0002C26.2082 18.7801 27 16.17 27 13.5C26.9962 9.92074 25.5727 6.48915 23.0418 3.95823C20.5108 1.42731 17.0793 0.00377976 13.5 0ZM8.82693 9.34615C9.13501 9.34615 9.43617 9.43751 9.69233 9.60867C9.94849 9.77983 10.1481 10.0231 10.266 10.3077C10.3839 10.5924 10.4148 10.9056 10.3547 11.2077C10.2946 11.5099 10.1462 11.7875 9.92838 12.0053C9.71054 12.2231 9.43298 12.3715 9.13082 12.4316C8.82866 12.4917 8.51546 12.4609 8.23082 12.343C7.94619 12.2251 7.70291 12.0254 7.53175 11.7693C7.36059 11.5131 7.26924 11.2119 7.26924 10.9038C7.26924 10.4907 7.43335 10.0945 7.72547 9.80239C8.0176 9.51027 8.4138 9.34615 8.82693 9.34615ZM19.5906 17.1346C18.2549 19.4439 16.0351 20.7692 13.5 20.7692C10.9649 20.7692 8.74515 19.4452 7.40943 17.1346C7.33429 17.0164 7.28384 16.8842 7.26111 16.746C7.23838 16.6078 7.24384 16.4665 7.27716 16.3304C7.31048 16.1944 7.37097 16.0665 7.455 15.9545C7.53903 15.8424 7.64485 15.7485 7.76611 15.6784C7.88737 15.6083 8.02155 15.5635 8.16058 15.5466C8.29961 15.5297 8.44063 15.5411 8.57514 15.5802C8.70965 15.6192 8.83488 15.685 8.94328 15.7737C9.05169 15.8624 9.14105 15.972 9.20597 16.0962C10.1756 17.772 11.6996 18.6923 13.5 18.6923C15.3004 18.6923 16.8244 17.7707 17.794 16.0962C17.859 15.972 17.9483 15.8624 18.0567 15.7737C18.1651 15.685 18.2904 15.6192 18.4249 15.5802C18.5594 15.5411 18.7004 15.5297 18.8394 15.5466C18.9785 15.5635 19.1126 15.6083 19.2339 15.6784C19.3552 15.7485 19.461 15.8424 19.545 15.9545C19.629 16.0665 19.6895 16.1944 19.7228 16.3304C19.7562 16.4665 19.7616 16.6078 19.7389 16.746C19.7162 16.8842 19.6657 17.0164 19.5906 17.1346ZM18.1731 12.4615C17.865 12.4615 17.5638 12.3702 17.3077 12.199C17.0515 12.0279 16.8519 11.7846 16.734 11.4999C16.6161 11.2153 16.5852 10.9021 16.6453 10.6C16.7054 10.2978 16.8538 10.0202 17.0716 9.80239C17.2895 9.58454 17.567 9.43619 17.8692 9.37608C18.1714 9.31598 18.4846 9.34683 18.7692 9.46472C19.0538 9.58262 19.2971 9.78228 19.4683 10.0384C19.6394 10.2946 19.7308 10.5958 19.7308 10.9038C19.7308 11.317 19.5667 11.7132 19.2745 12.0053C18.9824 12.2974 18.5862 12.4615 18.1731 12.4615Z" fill="#423D36"/>
</svg>
