<svg width="91" height="91" viewBox="0 0 91 91" fill="none" xmlns="http://www.w3.org/2000/svg">
<circle cx="45.4993" cy="45.4993" r="41.4993" fill="#FDB44F" stroke="white" stroke-width="8"/>
<path d="M44.5 24C40.1255 24.005 35.9315 25.745 32.8382 28.8383C29.7449 31.9316 28.005 36.1256 28 40.5002C28 54.6191 43 65.2823 43.6394 65.7285C43.8916 65.9052 44.1921 66 44.5 66C44.8079 66 45.1084 65.9052 45.3606 65.7285C46 65.2823 61 54.6191 61 40.5002C60.995 36.1256 59.2551 31.9316 56.1618 28.8383C53.0685 25.745 48.8745 24.005 44.5 24ZM44.5 34.5001C45.6867 34.5001 46.8467 34.852 47.8334 35.5113C48.8201 36.1706 49.5892 37.1077 50.0433 38.204C50.4974 39.3004 50.6162 40.5068 50.3847 41.6707C50.1532 42.8346 49.5818 43.9037 48.7426 44.7428C47.9035 45.582 46.8344 46.1534 45.6705 46.3849C44.5067 46.6164 43.3003 46.4976 42.2039 46.0435C41.1075 45.5894 40.1705 44.8203 39.5112 43.8336C38.8519 42.8469 38.5 41.6869 38.5 40.5002C38.5 38.9089 39.1321 37.3827 40.2574 36.2575C41.3826 35.1323 42.9087 34.5001 44.5 34.5001Z" fill="white"/>
</svg>
