<svg width="28" height="28" viewBox="0 0 28 28" fill="none" xmlns="http://www.w3.org/2000/svg">
<path fill-rule="evenodd" clip-rule="evenodd" d="M0 14.6784C0 11.6475 -5.96046e-08 10.132 0.51884 8.79216C0.780422 8.11664 1.13621 7.48098 1.57576 6.90382C2.44759 5.75905 3.74324 4.95965 6.33453 3.36087L6.61498 3.18783C9.79868 1.22354 11.3905 0.241375 13.1374 0.047677C13.7107 -0.0158923 14.2893 -0.0158923 14.8626 0.047677C16.6094 0.241375 18.2014 1.22354 21.385 3.18783L21.6655 3.36087C24.2567 4.95965 25.5523 5.75905 26.4242 6.90382C26.8638 7.48098 27.2196 8.11664 27.4812 8.79216C28 10.132 28 11.6475 28 14.6784C28 19.912 28 22.529 26.7772 24.4314C26.1691 25.3775 25.3608 26.1806 24.4087 26.7848C22.4941 28 19.8606 28 14.5936 28H13.4064C8.13943 28 5.5059 28 3.59125 26.7848C2.63916 26.1806 1.83097 25.3775 1.22287 24.4314C-1.19209e-07 22.529 0 19.912 0 14.6784ZM9.33333 19.4444C8.68901 19.4444 8.16667 19.9668 8.16667 20.6111C8.16667 21.2554 8.68901 21.7778 9.33333 21.7778H18.6667C19.311 21.7778 19.8333 21.2554 19.8333 20.6111C19.8333 19.9668 19.311 19.4444 18.6667 19.4444H9.33333Z" fill="#423D36"/>
</svg>
