<svg width="23" height="30" viewBox="0 0 23 30" fill="none" xmlns="http://www.w3.org/2000/svg">
<path d="M12.4641 0.0148541C11.9142 -0.0560052 11.4303 0.135059 11.0338 0.409133C10.6511 0.673734 10.2953 1.05179 9.95432 1.47606C9.28729 2.306 8.49897 3.54389 7.51435 5.09148L1.96288 13.817C1.28159 14.8877 0.708415 15.7884 0.373549 16.5326C0.030619 17.2946 -0.201883 18.1923 0.252325 19.0718C0.706532 19.9511 1.55453 20.2449 2.35458 20.3681C3.13585 20.4882 4.17425 20.4882 5.40851 20.4881H6.29168C6.96399 20.4881 7.38154 20.4897 7.68904 20.5274C7.97107 20.5617 8.03355 20.6145 8.04791 20.6268C8.08002 20.6538 8.10979 20.6849 8.13585 20.7183C8.14754 20.7333 8.19793 20.7977 8.231 21.0911C8.26706 21.411 8.26865 21.8454 8.26865 22.5447V22.6181C8.26864 24.4884 8.26862 25.9838 8.38517 27.0648C8.44443 27.6144 8.54053 28.1339 8.71929 28.5743C8.90447 29.0304 9.20666 29.4677 9.70277 29.7243C9.96434 29.8596 10.246 29.9478 10.5359 29.9852C11.0858 30.056 11.5697 29.865 11.9662 29.5908C12.3489 29.3262 12.7046 28.9482 13.0458 28.524C13.7163 27.6894 14.5099 26.4425 15.502 24.8829L21.0371 16.1831C21.7185 15.1124 22.2916 14.2116 22.6264 13.4675C22.9694 12.7055 23.2018 11.8077 22.7477 10.9283C22.2935 10.0489 21.4455 9.75506 20.6454 9.63198C19.8641 9.51179 18.8258 9.51183 17.5914 9.51189H16.7084C16.036 9.51189 15.6185 9.51023 15.311 9.47273C15.0289 9.43832 14.9665 9.38543 14.9522 9.37326C14.92 9.34617 14.8902 9.31508 14.8642 9.28167C14.8525 9.26673 14.8021 9.20232 14.769 8.90892C14.733 8.58903 14.7314 8.15465 14.7314 7.45524V7.38186C14.7314 5.51163 14.7314 4.01625 14.6148 2.93525C14.5556 2.38566 14.4595 1.86612 14.2807 1.42572C14.0956 0.969543 13.7934 0.532344 13.2973 0.275714C13.0357 0.140415 12.7539 0.0522129 12.4641 0.0148541Z" fill="#423D36"/>
</svg>
