<svg width="47" height="47" viewBox="0 0 47 47" fill="none" xmlns="http://www.w3.org/2000/svg">
<rect width="47" height="47" rx="20" fill="#FDB44F"/>
<path d="M32.9437 15.9028C32.9437 15.9028 32.9437 15.9122 32.9437 15.9168L27.4874 33.9112C27.4048 34.2035 27.2348 34.4635 27.0002 34.6564C26.7656 34.8493 26.4776 34.9658 26.1749 34.9903C26.1318 34.994 26.0887 34.9959 26.0455 34.9959C25.7619 34.9968 25.4838 34.9165 25.2443 34.7645C25.0048 34.6125 24.8137 34.3952 24.6937 34.1381L21.2812 27.135C21.247 27.0648 21.2356 26.9857 21.2486 26.9087C21.2615 26.8318 21.2981 26.7608 21.3534 26.7056L26.7834 21.2756C26.9181 21.1338 26.9921 20.945 26.9896 20.7494C26.9871 20.5538 26.9083 20.367 26.77 20.2287C26.6317 20.0904 26.4448 20.0116 26.2492 20.0091C26.0537 20.0066 25.8648 20.0806 25.723 20.2153L20.2902 25.6453C20.2351 25.7005 20.1641 25.7371 20.0871 25.7501C20.0101 25.763 19.931 25.7516 19.8609 25.7175L12.8512 22.3059C12.5771 22.1744 12.3494 21.9627 12.1983 21.6989C12.0472 21.4351 11.9799 21.1316 12.0052 20.8286C12.0305 20.5256 12.1473 20.2375 12.3401 20.0024C12.5328 19.7673 12.7925 19.5964 13.0846 19.5122L31.079 14.0559H31.093C31.3493 13.9839 31.62 13.9814 31.8775 14.0486C32.135 14.1158 32.37 14.2503 32.5583 14.4383C32.7467 14.6263 32.8817 14.861 32.9494 15.1183C33.0171 15.3757 33.0151 15.6464 32.9437 15.9028Z" fill="white"/>
</svg>
