<svg width="58" height="58" viewBox="0 0 58 58" fill="none" xmlns="http://www.w3.org/2000/svg">
<g filter="url(#filter0_d_2736_5910)">
<circle cx="29" cy="27" r="25" fill="#FB970C"/>
<path d="M18.6049 34.6H23.3009V35.44H18.6049V34.6ZM17.7889 36.912H24.4929V37.752H17.7889V36.912ZM22.6609 34.6H23.7089V35.104C23.7089 35.632 23.7089 36.304 23.5169 37.16L22.4689 37.064C22.6609 36.224 22.6609 35.624 22.6609 35.104V34.6ZM18.5329 38.256H23.6849V40.344H19.6049V41.096H18.5409V39.56H22.6289V39.08H18.5329V38.256ZM18.5409 40.84H23.8769V41.664H18.5409V40.84ZM26.4843 34.832H27.2923V35.672C27.2923 36.944 26.8283 38.176 25.6443 38.688L25.1003 37.904C26.1003 37.464 26.4843 36.536 26.4843 35.672V34.832ZM26.7403 34.832H27.5483V35.672C27.5483 36.52 27.9083 37.488 28.9403 37.952L28.4843 38.8C27.1883 38.264 26.7403 36.928 26.7403 35.672V34.832ZM29.4283 34.832H30.2283V35.672C30.2283 36.944 29.7803 38.272 28.4843 38.8L28.0363 37.952C29.0603 37.496 29.4283 36.536 29.4283 35.672V34.832ZM29.6923 34.832H30.5003V35.672C30.5003 36.568 30.8763 37.472 31.8843 37.904L31.3323 38.688C30.1483 38.184 29.6923 36.976 29.6923 35.672V34.832ZM25.1403 39.936H31.8443V40.8H25.1403V39.936ZM37.6037 34.304H38.6757V41.712H37.6037V34.304ZM35.4197 35.072H36.4757C36.4757 37.336 35.7077 39.192 33.0757 40.464L32.5237 39.616C34.6517 38.592 35.4197 37.248 35.4197 35.264V35.072ZM32.9157 35.072H35.9237V35.912H32.9157V35.072Z" fill="white"/>
<path d="M37.5547 15.69L33.3093 11.4453C33.1682 11.3041 33.0006 11.1921 32.8162 11.1157C32.6317 11.0393 32.4341 11 32.2344 11C32.0348 11 31.8371 11.0393 31.6527 11.1157C31.4683 11.1921 31.3007 11.3041 31.1595 11.4453L19.4455 23.1599C19.3038 23.3006 19.1914 23.468 19.1149 23.6524C19.0384 23.8369 18.9994 24.0347 19 24.2344V28.48C19 28.8831 19.1601 29.2697 19.4452 29.5548C19.7302 29.8399 20.1168 30 20.5199 30H36.4793C36.6809 30 36.8742 29.9199 37.0167 29.7774C37.1592 29.6349 37.2393 29.4416 37.2393 29.24C37.2393 29.0384 37.1592 28.8451 37.0167 28.7026C36.8742 28.5601 36.6809 28.48 36.4793 28.48H26.9151L37.5547 17.8399C37.6959 17.6987 37.8079 17.5311 37.8843 17.3467C37.9607 17.1622 38 16.9646 38 16.7649C38 16.5653 37.9607 16.3676 37.8843 16.1831C37.8079 15.9987 37.6959 15.8311 37.5547 15.69ZM23.4952 26.58L32.0772 17.9976L33.6627 19.5822L25.0798 28.1655L23.4952 26.58ZM30.9999 16.9221L22.4199 25.5055L20.8344 23.9199L29.4173 15.3375L30.9999 16.9221ZM20.5199 25.7544L23.2454 28.48H20.5199V25.7544Z" fill="white"/>
</g>
<defs>
<filter id="filter0_d_2736_5910" x="0" y="0" width="58" height="58" filterUnits="userSpaceOnUse" color-interpolation-filters="sRGB">
<feFlood flood-opacity="0" result="BackgroundImageFix"/>
<feColorMatrix in="SourceAlpha" type="matrix" values="0 0 0 0 0 0 0 0 0 0 0 0 0 0 0 0 0 0 127 0" result="hardAlpha"/>
<feOffset dy="2"/>
<feGaussianBlur stdDeviation="2"/>
<feComposite in2="hardAlpha" operator="out"/>
<feColorMatrix type="matrix" values="0 0 0 0 0 0 0 0 0 0 0 0 0 0 0 0 0 0 0.25 0"/>
<feBlend mode="normal" in2="BackgroundImageFix" result="effect1_dropShadow_2736_5910"/>
<feBlend mode="normal" in="SourceGraphic" in2="effect1_dropShadow_2736_5910" result="shape"/>
</filter>
</defs>
</svg>
